<mxfile host="app.diagrams.net" modified="2023-10-23T07:59:41.969Z" agent="Mozilla/5.0 (Macintosh; Intel Mac OS X 10_15_7) AppleWebKit/537.36 (KHTML, like Gecko) Chrome/111.0.0.0 Safari/537.36" etag="b6iQaVxiqlhM2GZYm9BN" version="22.0.6" type="device">
  <diagram name="Страница — 1" id="1IjOuKGLjw6foW2R_JDn">
    <mxGraphModel dx="2902" dy="3330" grid="1" gridSize="10" guides="1" tooltips="1" connect="1" arrows="1" fold="1" page="1" pageScale="1" pageWidth="1442" pageHeight="2039" math="0" shadow="0">
      <root>
        <mxCell id="0" />
        <mxCell id="1" parent="0" />
        <mxCell id="WZFqarNoslXMxzI4h9gC-1" value="Экскурсовод" style="shape=umlActor;verticalLabelPosition=bottom;verticalAlign=top;html=1;outlineConnect=0;" parent="1" vertex="1">
          <mxGeometry x="-310" y="320" width="50" height="100" as="geometry" />
        </mxCell>
        <mxCell id="WZFqarNoslXMxzI4h9gC-2" value="Путешественник&lt;br&gt;" style="shape=umlActor;verticalLabelPosition=bottom;verticalAlign=top;html=1;outlineConnect=0;" parent="1" vertex="1">
          <mxGeometry x="1050" y="320" width="50" height="100" as="geometry" />
        </mxCell>
        <mxCell id="WZFqarNoslXMxzI4h9gC-6" value="Авторизация&amp;nbsp;" style="ellipse;whiteSpace=wrap;html=1;" parent="1" vertex="1">
          <mxGeometry x="640" y="335" width="140" height="70" as="geometry" />
        </mxCell>
        <mxCell id="WZFqarNoslXMxzI4h9gC-7" value="" style="endArrow=none;html=1;rounded=0;entryX=0.5;entryY=0.5;entryDx=0;entryDy=0;entryPerimeter=0;exitX=1;exitY=0.5;exitDx=0;exitDy=0;" parent="1" source="WZFqarNoslXMxzI4h9gC-6" target="WZFqarNoslXMxzI4h9gC-2" edge="1">
          <mxGeometry width="50" height="50" relative="1" as="geometry">
            <mxPoint x="700" y="430" as="sourcePoint" />
            <mxPoint x="750" y="380" as="targetPoint" />
          </mxGeometry>
        </mxCell>
        <mxCell id="WZFqarNoslXMxzI4h9gC-10" value="include" style="html=1;verticalAlign=bottom;endArrow=open;dashed=1;endSize=8;curved=0;rounded=0;entryX=1;entryY=1;entryDx=0;entryDy=0;exitX=0;exitY=0.5;exitDx=0;exitDy=0;" parent="1" source="WZFqarNoslXMxzI4h9gC-6" target="cWsWiNhI1IRaaSfoAkPH-8" edge="1">
          <mxGeometry relative="1" as="geometry">
            <mxPoint x="760" y="410" as="sourcePoint" />
            <mxPoint x="680" y="410" as="targetPoint" />
          </mxGeometry>
        </mxCell>
        <mxCell id="WZFqarNoslXMxzI4h9gC-11" value="Добавить экскурсию" style="ellipse;whiteSpace=wrap;html=1;" parent="1" vertex="1">
          <mxGeometry x="240" y="480" width="140" height="70" as="geometry" />
        </mxCell>
        <mxCell id="WZFqarNoslXMxzI4h9gC-12" value="Изменить информацию об&lt;br&gt;экскурсии" style="ellipse;whiteSpace=wrap;html=1;" parent="1" vertex="1">
          <mxGeometry x="-160" y="460" width="160" height="90" as="geometry" />
        </mxCell>
        <mxCell id="WZFqarNoslXMxzI4h9gC-15" value="Ввод локации&amp;nbsp;" style="ellipse;whiteSpace=wrap;html=1;" parent="1" vertex="1">
          <mxGeometry x="70" y="700" width="140" height="70" as="geometry" />
        </mxCell>
        <mxCell id="WZFqarNoslXMxzI4h9gC-18" value="include" style="html=1;verticalAlign=bottom;endArrow=open;dashed=1;endSize=8;curved=0;rounded=0;exitX=0;exitY=0.5;exitDx=0;exitDy=0;entryX=1;entryY=0;entryDx=0;entryDy=0;" parent="1" source="WZFqarNoslXMxzI4h9gC-6" target="cWsWiNhI1IRaaSfoAkPH-6" edge="1">
          <mxGeometry relative="1" as="geometry">
            <mxPoint x="690" y="415" as="sourcePoint" />
            <mxPoint x="780" y="470" as="targetPoint" />
          </mxGeometry>
        </mxCell>
        <mxCell id="WZFqarNoslXMxzI4h9gC-19" value="Ввод стоимости&amp;nbsp;" style="ellipse;whiteSpace=wrap;html=1;" parent="1" vertex="1">
          <mxGeometry x="510" y="700" width="140" height="70" as="geometry" />
        </mxCell>
        <mxCell id="WZFqarNoslXMxzI4h9gC-20" value="Ввод даты" style="ellipse;whiteSpace=wrap;html=1;" parent="1" vertex="1">
          <mxGeometry x="581" y="610" width="140" height="70" as="geometry" />
        </mxCell>
        <mxCell id="WZFqarNoslXMxzI4h9gC-21" value="include" style="html=1;verticalAlign=bottom;endArrow=open;dashed=1;endSize=8;curved=0;rounded=0;entryX=0.5;entryY=0;entryDx=0;entryDy=0;exitX=0.551;exitY=1.045;exitDx=0;exitDy=0;exitPerimeter=0;" parent="1" source="WZFqarNoslXMxzI4h9gC-11" target="WZFqarNoslXMxzI4h9gC-20" edge="1">
          <mxGeometry relative="1" as="geometry">
            <mxPoint x="580" y="1015" as="sourcePoint" />
            <mxPoint x="500" y="1090" as="targetPoint" />
          </mxGeometry>
        </mxCell>
        <mxCell id="WZFqarNoslXMxzI4h9gC-22" value="include" style="html=1;verticalAlign=bottom;endArrow=open;dashed=1;endSize=8;curved=0;rounded=0;entryX=0.5;entryY=0;entryDx=0;entryDy=0;exitX=0.551;exitY=0.983;exitDx=0;exitDy=0;exitPerimeter=0;" parent="1" source="WZFqarNoslXMxzI4h9gC-11" target="WZFqarNoslXMxzI4h9gC-19" edge="1">
          <mxGeometry relative="1" as="geometry">
            <mxPoint x="310" y="570" as="sourcePoint" />
            <mxPoint x="330" y="760" as="targetPoint" />
          </mxGeometry>
        </mxCell>
        <mxCell id="WZFqarNoslXMxzI4h9gC-23" value="include" style="html=1;verticalAlign=bottom;endArrow=open;dashed=1;endSize=8;curved=0;rounded=0;entryX=0.5;entryY=0;entryDx=0;entryDy=0;exitX=0.563;exitY=0.983;exitDx=0;exitDy=0;exitPerimeter=0;" parent="1" source="WZFqarNoslXMxzI4h9gC-11" target="WZFqarNoslXMxzI4h9gC-15" edge="1">
          <mxGeometry relative="1" as="geometry">
            <mxPoint x="320" y="820" as="sourcePoint" />
            <mxPoint x="340" y="700" as="targetPoint" />
          </mxGeometry>
        </mxCell>
        <mxCell id="WZFqarNoslXMxzI4h9gC-24" value="Выбор экскурсии" style="ellipse;whiteSpace=wrap;html=1;" parent="1" vertex="1">
          <mxGeometry x="-370" y="620" width="140" height="70" as="geometry" />
        </mxCell>
        <mxCell id="WZFqarNoslXMxzI4h9gC-25" value="include" style="html=1;verticalAlign=bottom;endArrow=open;dashed=1;endSize=8;curved=0;rounded=0;entryX=0.5;entryY=0;entryDx=0;entryDy=0;exitX=0.5;exitY=1;exitDx=0;exitDy=0;" parent="1" source="WZFqarNoslXMxzI4h9gC-12" target="WZFqarNoslXMxzI4h9gC-24" edge="1">
          <mxGeometry relative="1" as="geometry">
            <mxPoint x="110" y="425" as="sourcePoint" />
            <mxPoint x="30" y="500" as="targetPoint" />
          </mxGeometry>
        </mxCell>
        <mxCell id="WZFqarNoslXMxzI4h9gC-26" value="Создать бронь на экскурсию" style="ellipse;whiteSpace=wrap;html=1;" parent="1" vertex="1">
          <mxGeometry x="980" y="120" width="140" height="70" as="geometry" />
        </mxCell>
        <mxCell id="WZFqarNoslXMxzI4h9gC-27" value="Ввод даты" style="ellipse;whiteSpace=wrap;html=1;" parent="1" vertex="1">
          <mxGeometry x="1140" y="30" width="140" height="70" as="geometry" />
        </mxCell>
        <mxCell id="WZFqarNoslXMxzI4h9gC-28" value="Ввод локации&amp;nbsp;" style="ellipse;whiteSpace=wrap;html=1;" parent="1" vertex="1">
          <mxGeometry x="920" y="-100" width="140" height="70" as="geometry" />
        </mxCell>
        <mxCell id="WZFqarNoslXMxzI4h9gC-29" value="Ввод времени&amp;nbsp;" style="ellipse;whiteSpace=wrap;html=1;" parent="1" vertex="1">
          <mxGeometry x="1120" y="-100" width="140" height="70" as="geometry" />
        </mxCell>
        <mxCell id="WZFqarNoslXMxzI4h9gC-31" value="include" style="html=1;verticalAlign=bottom;endArrow=open;dashed=1;endSize=8;curved=0;rounded=0;entryX=0.5;entryY=1;entryDx=0;entryDy=0;exitX=0.5;exitY=0;exitDx=0;exitDy=0;" parent="1" source="WZFqarNoslXMxzI4h9gC-26" target="WZFqarNoslXMxzI4h9gC-27" edge="1">
          <mxGeometry relative="1" as="geometry">
            <mxPoint x="1050" y="100" as="sourcePoint" />
            <mxPoint x="680" y="110" as="targetPoint" />
            <Array as="points">
              <mxPoint x="1120" y="110" />
            </Array>
          </mxGeometry>
        </mxCell>
        <mxCell id="WZFqarNoslXMxzI4h9gC-32" value="include" style="html=1;verticalAlign=bottom;endArrow=open;dashed=1;endSize=8;curved=0;rounded=0;entryX=0.5;entryY=1;entryDx=0;entryDy=0;exitX=0.5;exitY=0;exitDx=0;exitDy=0;" parent="1" source="WZFqarNoslXMxzI4h9gC-26" target="WZFqarNoslXMxzI4h9gC-29" edge="1">
          <mxGeometry relative="1" as="geometry">
            <mxPoint x="1060" y="130" as="sourcePoint" />
            <mxPoint x="1220" y="110" as="targetPoint" />
            <Array as="points" />
          </mxGeometry>
        </mxCell>
        <mxCell id="WZFqarNoslXMxzI4h9gC-33" value="include" style="html=1;verticalAlign=bottom;endArrow=open;dashed=1;endSize=8;curved=0;rounded=0;entryX=0.5;entryY=1;entryDx=0;entryDy=0;exitX=0.5;exitY=0;exitDx=0;exitDy=0;" parent="1" source="WZFqarNoslXMxzI4h9gC-26" target="WZFqarNoslXMxzI4h9gC-28" edge="1">
          <mxGeometry relative="1" as="geometry">
            <mxPoint x="1060" y="130" as="sourcePoint" />
            <mxPoint x="1060" y="20" as="targetPoint" />
            <Array as="points" />
          </mxGeometry>
        </mxCell>
        <mxCell id="WZFqarNoslXMxzI4h9gC-34" value="Отменить бронирование&amp;nbsp;" style="ellipse;whiteSpace=wrap;html=1;" parent="1" vertex="1">
          <mxGeometry x="640" y="110" width="140" height="70" as="geometry" />
        </mxCell>
        <mxCell id="WZFqarNoslXMxzI4h9gC-35" value="Выбор забронированной экскурсии" style="ellipse;whiteSpace=wrap;html=1;" parent="1" vertex="1">
          <mxGeometry x="640" y="-80" width="140" height="70" as="geometry" />
        </mxCell>
        <mxCell id="WZFqarNoslXMxzI4h9gC-36" value="include" style="html=1;verticalAlign=bottom;endArrow=open;dashed=1;endSize=8;curved=0;rounded=0;entryX=0.5;entryY=1;entryDx=0;entryDy=0;exitX=0.5;exitY=0;exitDx=0;exitDy=0;" parent="1" source="WZFqarNoslXMxzI4h9gC-34" target="WZFqarNoslXMxzI4h9gC-35" edge="1">
          <mxGeometry relative="1" as="geometry">
            <mxPoint x="700" y="120" as="sourcePoint" />
            <mxPoint x="700" y="-10" as="targetPoint" />
          </mxGeometry>
        </mxCell>
        <mxCell id="WZFqarNoslXMxzI4h9gC-38" value="Изменить бронирование" style="ellipse;whiteSpace=wrap;html=1;" parent="1" vertex="1">
          <mxGeometry x="300" y="100" width="140" height="70" as="geometry" />
        </mxCell>
        <mxCell id="WZFqarNoslXMxzI4h9gC-40" value="Выбор экскурсии" style="ellipse;whiteSpace=wrap;html=1;" parent="1" vertex="1">
          <mxGeometry x="190" y="-40" width="140" height="70" as="geometry" />
        </mxCell>
        <mxCell id="WZFqarNoslXMxzI4h9gC-42" value="include" style="html=1;verticalAlign=bottom;endArrow=open;dashed=1;endSize=8;curved=0;rounded=0;entryX=0.5;entryY=1;entryDx=0;entryDy=0;exitX=0.5;exitY=0;exitDx=0;exitDy=0;" parent="1" source="WZFqarNoslXMxzI4h9gC-38" target="WZFqarNoslXMxzI4h9gC-40" edge="1">
          <mxGeometry relative="1" as="geometry">
            <mxPoint x="90" y="345" as="sourcePoint" />
            <mxPoint x="90" y="405" as="targetPoint" />
          </mxGeometry>
        </mxCell>
        <mxCell id="WZFqarNoslXMxzI4h9gC-44" value="Изменить время / дату / проведения" style="ellipse;whiteSpace=wrap;html=1;" parent="1" vertex="1">
          <mxGeometry x="400" y="-40" width="140" height="70" as="geometry" />
        </mxCell>
        <mxCell id="WZFqarNoslXMxzI4h9gC-45" value="include" style="html=1;verticalAlign=bottom;endArrow=open;dashed=1;endSize=8;curved=0;rounded=0;entryX=0.5;entryY=1;entryDx=0;entryDy=0;exitX=0.5;exitY=0;exitDx=0;exitDy=0;" parent="1" source="WZFqarNoslXMxzI4h9gC-38" target="WZFqarNoslXMxzI4h9gC-44" edge="1">
          <mxGeometry relative="1" as="geometry">
            <mxPoint x="380" y="180" as="sourcePoint" />
            <mxPoint x="310" y="255" as="targetPoint" />
          </mxGeometry>
        </mxCell>
        <mxCell id="WZFqarNoslXMxzI4h9gC-46" value="Изменить время / дату / локацию проведения экскурсии" style="ellipse;whiteSpace=wrap;html=1;" parent="1" vertex="1">
          <mxGeometry x="-190" y="670" width="210" height="110" as="geometry" />
        </mxCell>
        <mxCell id="WZFqarNoslXMxzI4h9gC-47" value="extend" style="html=1;verticalAlign=bottom;endArrow=open;dashed=1;endSize=8;curved=0;rounded=0;entryX=0.5;entryY=0;entryDx=0;entryDy=0;exitX=0.5;exitY=1;exitDx=0;exitDy=0;" parent="1" source="WZFqarNoslXMxzI4h9gC-12" target="WZFqarNoslXMxzI4h9gC-46" edge="1">
          <mxGeometry relative="1" as="geometry">
            <mxPoint x="-140" y="590" as="sourcePoint" />
            <mxPoint x="-230" y="640" as="targetPoint" />
          </mxGeometry>
        </mxCell>
        <mxCell id="cWsWiNhI1IRaaSfoAkPH-1" value="extend" style="html=1;verticalAlign=bottom;endArrow=open;dashed=1;endSize=8;curved=0;rounded=0;entryX=0.5;entryY=1;entryDx=0;entryDy=0;exitX=0.5;exitY=0;exitDx=0;exitDy=0;" parent="1" source="WZFqarNoslXMxzI4h9gC-6" target="WZFqarNoslXMxzI4h9gC-26" edge="1">
          <mxGeometry relative="1" as="geometry">
            <mxPoint x="720" y="415" as="sourcePoint" />
            <mxPoint x="790" y="480" as="targetPoint" />
          </mxGeometry>
        </mxCell>
        <mxCell id="cWsWiNhI1IRaaSfoAkPH-3" value="extend" style="html=1;verticalAlign=bottom;endArrow=open;dashed=1;endSize=8;curved=0;rounded=0;entryX=0.5;entryY=1;entryDx=0;entryDy=0;exitX=0.5;exitY=0;exitDx=0;exitDy=0;" parent="1" source="WZFqarNoslXMxzI4h9gC-6" target="WZFqarNoslXMxzI4h9gC-38" edge="1">
          <mxGeometry relative="1" as="geometry">
            <mxPoint x="720" y="345" as="sourcePoint" />
            <mxPoint x="1060" y="200" as="targetPoint" />
            <Array as="points" />
          </mxGeometry>
        </mxCell>
        <mxCell id="cWsWiNhI1IRaaSfoAkPH-4" value="extend" style="html=1;verticalAlign=bottom;endArrow=open;dashed=1;endSize=8;curved=0;rounded=0;entryX=0.5;entryY=1;entryDx=0;entryDy=0;exitX=0.5;exitY=0;exitDx=0;exitDy=0;" parent="1" source="WZFqarNoslXMxzI4h9gC-6" target="WZFqarNoslXMxzI4h9gC-34" edge="1">
          <mxGeometry relative="1" as="geometry">
            <mxPoint x="710" y="120" as="sourcePoint" />
            <mxPoint x="710" as="targetPoint" />
          </mxGeometry>
        </mxCell>
        <mxCell id="cWsWiNhI1IRaaSfoAkPH-5" value="Авторизация&amp;nbsp;" style="ellipse;whiteSpace=wrap;html=1;" parent="1" vertex="1">
          <mxGeometry x="40" y="335" width="140" height="70" as="geometry" />
        </mxCell>
        <mxCell id="cWsWiNhI1IRaaSfoAkPH-6" value="Ввод логина" style="ellipse;whiteSpace=wrap;html=1;" parent="1" vertex="1">
          <mxGeometry x="330" y="390" width="140" height="70" as="geometry" />
        </mxCell>
        <mxCell id="cWsWiNhI1IRaaSfoAkPH-7" value="include" style="html=1;verticalAlign=bottom;endArrow=open;dashed=1;endSize=8;curved=0;rounded=0;entryX=0;entryY=0;entryDx=0;entryDy=0;exitX=1;exitY=0.5;exitDx=0;exitDy=0;" parent="1" source="cWsWiNhI1IRaaSfoAkPH-5" target="cWsWiNhI1IRaaSfoAkPH-6" edge="1">
          <mxGeometry relative="1" as="geometry">
            <mxPoint x="450" y="475" as="sourcePoint" />
            <mxPoint x="370" y="475" as="targetPoint" />
          </mxGeometry>
        </mxCell>
        <mxCell id="cWsWiNhI1IRaaSfoAkPH-8" value="Ввод пароля" style="ellipse;whiteSpace=wrap;html=1;" parent="1" vertex="1">
          <mxGeometry x="330" y="265" width="140" height="70" as="geometry" />
        </mxCell>
        <mxCell id="cWsWiNhI1IRaaSfoAkPH-9" value="include" style="html=1;verticalAlign=bottom;endArrow=open;dashed=1;endSize=8;curved=0;rounded=0;entryX=0;entryY=1;entryDx=0;entryDy=0;exitX=1;exitY=0.5;exitDx=0;exitDy=0;" parent="1" source="cWsWiNhI1IRaaSfoAkPH-5" target="cWsWiNhI1IRaaSfoAkPH-8" edge="1">
          <mxGeometry relative="1" as="geometry">
            <mxPoint x="380" y="480" as="sourcePoint" />
            <mxPoint x="520" y="345" as="targetPoint" />
          </mxGeometry>
        </mxCell>
        <mxCell id="cWsWiNhI1IRaaSfoAkPH-10" value="" style="endArrow=none;html=1;rounded=0;exitX=0.5;exitY=0.5;exitDx=0;exitDy=0;exitPerimeter=0;entryX=0;entryY=0.5;entryDx=0;entryDy=0;" parent="1" source="WZFqarNoslXMxzI4h9gC-1" target="cWsWiNhI1IRaaSfoAkPH-5" edge="1">
          <mxGeometry width="50" height="50" relative="1" as="geometry">
            <mxPoint x="340" y="340" as="sourcePoint" />
            <mxPoint x="390" y="290" as="targetPoint" />
          </mxGeometry>
        </mxCell>
        <mxCell id="cWsWiNhI1IRaaSfoAkPH-11" value="extend" style="html=1;verticalAlign=bottom;endArrow=open;dashed=1;endSize=8;curved=0;rounded=0;entryX=0.5;entryY=0;entryDx=0;entryDy=0;exitX=0.5;exitY=1;exitDx=0;exitDy=0;" parent="1" source="cWsWiNhI1IRaaSfoAkPH-5" target="WZFqarNoslXMxzI4h9gC-12" edge="1">
          <mxGeometry relative="1" as="geometry">
            <mxPoint x="-60" y="560" as="sourcePoint" />
            <mxPoint x="-170" y="630" as="targetPoint" />
          </mxGeometry>
        </mxCell>
        <mxCell id="cWsWiNhI1IRaaSfoAkPH-12" value="extend" style="html=1;verticalAlign=bottom;endArrow=open;dashed=1;endSize=8;curved=0;rounded=0;entryX=0.5;entryY=0;entryDx=0;entryDy=0;exitX=0.5;exitY=1;exitDx=0;exitDy=0;" parent="1" source="cWsWiNhI1IRaaSfoAkPH-5" target="WZFqarNoslXMxzI4h9gC-11" edge="1">
          <mxGeometry relative="1" as="geometry">
            <mxPoint x="327" y="563" as="sourcePoint" />
            <mxPoint x="480" y="690" as="targetPoint" />
          </mxGeometry>
        </mxCell>
        <mxCell id="tma9EYBgkSaypRexghKh-1" value="Ввод описания" style="ellipse;whiteSpace=wrap;html=1;" parent="1" vertex="1">
          <mxGeometry x="360" y="760" width="140" height="70" as="geometry" />
        </mxCell>
        <mxCell id="tma9EYBgkSaypRexghKh-2" value="include" style="html=1;verticalAlign=bottom;endArrow=open;dashed=1;endSize=8;curved=0;rounded=0;entryX=0.5;entryY=0;entryDx=0;entryDy=0;exitX=0.5;exitY=1;exitDx=0;exitDy=0;" parent="1" source="WZFqarNoslXMxzI4h9gC-11" target="tma9EYBgkSaypRexghKh-1" edge="1">
          <mxGeometry relative="1" as="geometry">
            <mxPoint x="327" y="559" as="sourcePoint" />
            <mxPoint x="500" y="770" as="targetPoint" />
          </mxGeometry>
        </mxCell>
        <mxCell id="tma9EYBgkSaypRexghKh-3" value="Ввод названия&amp;nbsp;" style="ellipse;whiteSpace=wrap;html=1;" parent="1" vertex="1">
          <mxGeometry x="790" y="10" width="140" height="70" as="geometry" />
        </mxCell>
        <mxCell id="tma9EYBgkSaypRexghKh-5" value="include" style="html=1;verticalAlign=bottom;endArrow=open;dashed=1;endSize=8;curved=0;rounded=0;entryX=1;entryY=1;entryDx=0;entryDy=0;" parent="1" target="tma9EYBgkSaypRexghKh-3" edge="1">
          <mxGeometry relative="1" as="geometry">
            <mxPoint x="1050" y="120" as="sourcePoint" />
            <mxPoint x="1000" y="-20" as="targetPoint" />
            <Array as="points" />
          </mxGeometry>
        </mxCell>
        <mxCell id="tma9EYBgkSaypRexghKh-6" value="Ввод описания" style="ellipse;whiteSpace=wrap;html=1;" parent="1" vertex="1">
          <mxGeometry x="190" y="770" width="140" height="70" as="geometry" />
        </mxCell>
        <mxCell id="tma9EYBgkSaypRexghKh-7" value="include" style="html=1;verticalAlign=bottom;endArrow=open;dashed=1;endSize=8;curved=0;rounded=0;entryX=0.5;entryY=0;entryDx=0;entryDy=0;exitX=0.5;exitY=1;exitDx=0;exitDy=0;" parent="1" target="tma9EYBgkSaypRexghKh-6" edge="1">
          <mxGeometry relative="1" as="geometry">
            <mxPoint x="320" y="560" as="sourcePoint" />
            <mxPoint x="440" y="770" as="targetPoint" />
          </mxGeometry>
        </mxCell>
      </root>
    </mxGraphModel>
  </diagram>
</mxfile>
